<mxfile host="Electron" modified="2023-04-02T10:38:51.409Z" agent="Mozilla/5.0 (Windows NT 10.0; Win64; x64) AppleWebKit/537.36 (KHTML, like Gecko) draw.io/21.1.2 Chrome/106.0.5249.199 Electron/21.4.3 Safari/537.36" etag="kzdTKGJCq-4M7oWLDzjO" version="21.1.2" type="device">
  <diagram name="Page-1" id="oMAlh6nahrnF8Ww7XJTm">
    <mxGraphModel dx="1600" dy="1874" grid="1" gridSize="10" guides="1" tooltips="1" connect="1" arrows="1" fold="1" page="1" pageScale="1" pageWidth="850" pageHeight="1100" math="0" shadow="0">
      <root>
        <mxCell id="0" />
        <mxCell id="1" parent="0" />
        <mxCell id="y8pR5wxcZNyVzg8NaB7I-1" style="edgeStyle=orthogonalEdgeStyle;rounded=0;orthogonalLoop=1;jettySize=auto;html=1;movable=0;resizable=0;rotatable=0;deletable=0;editable=0;locked=1;connectable=0;" parent="1" source="CdHsnxA1PB7RoH4SgIvb-1" edge="1">
          <mxGeometry relative="1" as="geometry">
            <mxPoint x="500" y="20" as="targetPoint" />
            <Array as="points">
              <mxPoint x="500" y="10" />
              <mxPoint x="500" y="10" />
            </Array>
          </mxGeometry>
        </mxCell>
        <mxCell id="CdHsnxA1PB7RoH4SgIvb-1" value="bắt đầu" style="ellipse;whiteSpace=wrap;html=1;" parent="1" vertex="1">
          <mxGeometry x="440" y="-70" width="120" height="50" as="geometry" />
        </mxCell>
        <mxCell id="y8pR5wxcZNyVzg8NaB7I-46" style="edgeStyle=orthogonalEdgeStyle;rounded=0;orthogonalLoop=1;jettySize=auto;html=1;entryX=0.5;entryY=0;entryDx=0;entryDy=0;movable=0;resizable=0;rotatable=0;deletable=0;editable=0;locked=1;connectable=0;" parent="1" source="y8pR5wxcZNyVzg8NaB7I-2" target="y8pR5wxcZNyVzg8NaB7I-4" edge="1">
          <mxGeometry relative="1" as="geometry">
            <Array as="points">
              <mxPoint x="500" y="200" />
              <mxPoint x="500" y="200" />
            </Array>
          </mxGeometry>
        </mxCell>
        <mxCell id="y8pR5wxcZNyVzg8NaB7I-2" value="nhập tên người dùng&lt;br&gt;(name)" style="shape=parallelogram;perimeter=parallelogramPerimeter;whiteSpace=wrap;html=1;fixedSize=1;" parent="1" vertex="1">
          <mxGeometry x="440" y="130" width="150" height="60" as="geometry" />
        </mxCell>
        <mxCell id="y8pR5wxcZNyVzg8NaB7I-5" style="edgeStyle=orthogonalEdgeStyle;rounded=0;orthogonalLoop=1;jettySize=auto;html=1;movable=0;resizable=0;rotatable=0;deletable=0;editable=0;locked=1;connectable=0;" parent="1" source="y8pR5wxcZNyVzg8NaB7I-4" edge="1">
          <mxGeometry relative="1" as="geometry">
            <mxPoint x="620" y="210" as="targetPoint" />
            <Array as="points">
              <mxPoint x="620" y="270" />
            </Array>
          </mxGeometry>
        </mxCell>
        <mxCell id="y8pR5wxcZNyVzg8NaB7I-9" style="edgeStyle=orthogonalEdgeStyle;rounded=0;orthogonalLoop=1;jettySize=auto;html=1;movable=0;resizable=0;rotatable=0;deletable=0;editable=0;locked=1;connectable=0;" parent="1" source="y8pR5wxcZNyVzg8NaB7I-4" edge="1">
          <mxGeometry relative="1" as="geometry">
            <mxPoint x="370" y="300" as="targetPoint" />
            <Array as="points">
              <mxPoint x="370" y="270" />
            </Array>
          </mxGeometry>
        </mxCell>
        <mxCell id="y8pR5wxcZNyVzg8NaB7I-4" value="name trong khoảng [A-Za-z]" style="rhombus;whiteSpace=wrap;html=1;" parent="1" vertex="1">
          <mxGeometry x="417.5" y="220" width="165" height="120" as="geometry" />
        </mxCell>
        <mxCell id="y8pR5wxcZNyVzg8NaB7I-6" value="True" style="text;html=1;strokeColor=none;fillColor=none;align=center;verticalAlign=middle;whiteSpace=wrap;rounded=0;" parent="1" vertex="1">
          <mxGeometry x="565" y="240" width="60" height="30" as="geometry" />
        </mxCell>
        <mxCell id="y8pR5wxcZNyVzg8NaB7I-8" value="False" style="text;html=1;strokeColor=none;fillColor=none;align=center;verticalAlign=middle;whiteSpace=wrap;rounded=0;" parent="1" vertex="1">
          <mxGeometry x="365" y="240" width="60" height="30" as="geometry" />
        </mxCell>
        <mxCell id="y8pR5wxcZNyVzg8NaB7I-11" value="kết thúc" style="ellipse;whiteSpace=wrap;html=1;" parent="1" vertex="1">
          <mxGeometry x="690" y="670" width="120" height="80" as="geometry" />
        </mxCell>
        <mxCell id="y8pR5wxcZNyVzg8NaB7I-14" style="edgeStyle=orthogonalEdgeStyle;rounded=0;orthogonalLoop=1;jettySize=auto;html=1;movable=0;resizable=0;rotatable=0;deletable=0;editable=0;locked=1;connectable=0;" parent="1" source="y8pR5wxcZNyVzg8NaB7I-13" edge="1" target="y8pR5wxcZNyVzg8NaB7I-2">
          <mxGeometry relative="1" as="geometry">
            <mxPoint x="450" y="150" as="targetPoint" />
            <Array as="points">
              <mxPoint x="320" y="150" />
            </Array>
          </mxGeometry>
        </mxCell>
        <mxCell id="y8pR5wxcZNyVzg8NaB7I-13" value="yêu cầu nhập lại tên&lt;br&gt;(name)" style="shape=parallelogram;perimeter=parallelogramPerimeter;whiteSpace=wrap;html=1;fixedSize=1;" parent="1" vertex="1">
          <mxGeometry x="220" y="300" width="160" height="60" as="geometry" />
        </mxCell>
        <mxCell id="y8pR5wxcZNyVzg8NaB7I-16" style="edgeStyle=orthogonalEdgeStyle;rounded=0;orthogonalLoop=1;jettySize=auto;html=1;movable=0;resizable=0;rotatable=0;deletable=0;editable=0;locked=1;connectable=0;" parent="1" source="y8pR5wxcZNyVzg8NaB7I-15" edge="1">
          <mxGeometry relative="1" as="geometry">
            <mxPoint x="620" y="440" as="targetPoint" />
          </mxGeometry>
        </mxCell>
        <mxCell id="y8pR5wxcZNyVzg8NaB7I-15" value="in số dư&lt;br&gt;chọn gửi tiền, &lt;br&gt;rút tiền hoặc thoát" style="shape=parallelogram;perimeter=parallelogramPerimeter;whiteSpace=wrap;html=1;fixedSize=1;" parent="1" vertex="1">
          <mxGeometry x="550" y="300" width="140" height="80" as="geometry" />
        </mxCell>
        <mxCell id="y8pR5wxcZNyVzg8NaB7I-18" style="edgeStyle=orthogonalEdgeStyle;rounded=0;orthogonalLoop=1;jettySize=auto;html=1;movable=0;resizable=0;rotatable=0;deletable=0;editable=0;locked=1;connectable=0;" parent="1" source="y8pR5wxcZNyVzg8NaB7I-17" edge="1">
          <mxGeometry relative="1" as="geometry">
            <mxPoint x="480" y="520" as="targetPoint" />
            <Array as="points">
              <mxPoint x="480" y="480" />
              <mxPoint x="480" y="480" />
            </Array>
          </mxGeometry>
        </mxCell>
        <mxCell id="y8pR5wxcZNyVzg8NaB7I-19" style="edgeStyle=orthogonalEdgeStyle;rounded=0;orthogonalLoop=1;jettySize=auto;html=1;movable=0;resizable=0;rotatable=0;deletable=0;editable=0;locked=1;connectable=0;" parent="1" source="y8pR5wxcZNyVzg8NaB7I-17" edge="1">
          <mxGeometry relative="1" as="geometry">
            <mxPoint x="760" y="520" as="targetPoint" />
            <Array as="points">
              <mxPoint x="740" y="480" />
              <mxPoint x="740" y="480" />
            </Array>
          </mxGeometry>
        </mxCell>
        <mxCell id="y8pR5wxcZNyVzg8NaB7I-20" style="edgeStyle=orthogonalEdgeStyle;rounded=0;orthogonalLoop=1;jettySize=auto;html=1;movable=1;resizable=1;rotatable=1;deletable=1;editable=1;locked=0;connectable=1;entryX=0.5;entryY=0;entryDx=0;entryDy=0;" parent="1" source="y8pR5wxcZNyVzg8NaB7I-17" edge="1" target="y8pR5wxcZNyVzg8NaB7I-72">
          <mxGeometry relative="1" as="geometry">
            <mxPoint x="620" y="590" as="targetPoint" />
          </mxGeometry>
        </mxCell>
        <mxCell id="y8pR5wxcZNyVzg8NaB7I-17" value="lựa chọn" style="rhombus;whiteSpace=wrap;html=1;" parent="1" vertex="1">
          <mxGeometry x="567.5" y="440" width="105" height="80" as="geometry" />
        </mxCell>
        <mxCell id="y8pR5wxcZNyVzg8NaB7I-21" value="gửi tiền" style="text;html=1;strokeColor=none;fillColor=none;align=center;verticalAlign=middle;whiteSpace=wrap;rounded=0;" parent="1" vertex="1">
          <mxGeometry x="490" y="450" width="60" height="30" as="geometry" />
        </mxCell>
        <mxCell id="y8pR5wxcZNyVzg8NaB7I-22" value="rút tiền" style="text;html=1;strokeColor=none;fillColor=none;align=center;verticalAlign=middle;whiteSpace=wrap;rounded=0;" parent="1" vertex="1">
          <mxGeometry x="690" y="450" width="60" height="30" as="geometry" />
        </mxCell>
        <mxCell id="y8pR5wxcZNyVzg8NaB7I-23" value="thoát" style="text;html=1;strokeColor=none;fillColor=none;align=center;verticalAlign=middle;whiteSpace=wrap;rounded=0;" parent="1" vertex="1">
          <mxGeometry x="575" y="535" width="60" height="30" as="geometry" />
        </mxCell>
        <mxCell id="y8pR5wxcZNyVzg8NaB7I-26" style="edgeStyle=orthogonalEdgeStyle;rounded=0;orthogonalLoop=1;jettySize=auto;html=1;movable=0;resizable=0;rotatable=0;deletable=0;editable=0;locked=1;connectable=0;" parent="1" source="y8pR5wxcZNyVzg8NaB7I-24" edge="1">
          <mxGeometry relative="1" as="geometry">
            <mxPoint x="280" y="590" as="targetPoint" />
          </mxGeometry>
        </mxCell>
        <mxCell id="y8pR5wxcZNyVzg8NaB7I-24" value="nhập số tiền&lt;br&gt;(tmp)" style="shape=parallelogram;perimeter=parallelogramPerimeter;whiteSpace=wrap;html=1;fixedSize=1;" parent="1" vertex="1">
          <mxGeometry x="417.5" y="520" width="120" height="60" as="geometry" />
        </mxCell>
        <mxCell id="y8pR5wxcZNyVzg8NaB7I-27" style="edgeStyle=orthogonalEdgeStyle;rounded=0;orthogonalLoop=1;jettySize=auto;html=1;movable=0;resizable=0;rotatable=0;deletable=0;editable=0;locked=1;connectable=0;" parent="1" source="y8pR5wxcZNyVzg8NaB7I-25" target="y8pR5wxcZNyVzg8NaB7I-39" edge="1">
          <mxGeometry relative="1" as="geometry">
            <mxPoint x="930" y="550" as="targetPoint" />
          </mxGeometry>
        </mxCell>
        <mxCell id="y8pR5wxcZNyVzg8NaB7I-25" value="nhập số tiền&lt;br&gt;(tmp)" style="shape=parallelogram;perimeter=parallelogramPerimeter;whiteSpace=wrap;html=1;fixedSize=1;" parent="1" vertex="1">
          <mxGeometry x="700" y="520" width="120" height="60" as="geometry" />
        </mxCell>
        <mxCell id="y8pR5wxcZNyVzg8NaB7I-29" style="edgeStyle=orthogonalEdgeStyle;rounded=0;orthogonalLoop=1;jettySize=auto;html=1;entryX=0;entryY=0.5;entryDx=0;entryDy=0;" parent="1" source="y8pR5wxcZNyVzg8NaB7I-28" target="y8pR5wxcZNyVzg8NaB7I-34" edge="1">
          <mxGeometry relative="1" as="geometry">
            <mxPoint x="300" y="720" as="targetPoint" />
            <Array as="points">
              <mxPoint x="160" y="630" />
            </Array>
          </mxGeometry>
        </mxCell>
        <mxCell id="1MU2ezovRidm6G-BeYjr-18" style="edgeStyle=orthogonalEdgeStyle;rounded=0;orthogonalLoop=1;jettySize=auto;html=1;entryX=0.5;entryY=0;entryDx=0;entryDy=0;" edge="1" parent="1" source="y8pR5wxcZNyVzg8NaB7I-28" target="1MU2ezovRidm6G-BeYjr-16">
          <mxGeometry relative="1" as="geometry">
            <mxPoint x="400" y="660" as="targetPoint" />
            <Array as="points">
              <mxPoint x="370" y="630" />
              <mxPoint x="370" y="650" />
              <mxPoint x="340" y="650" />
            </Array>
          </mxGeometry>
        </mxCell>
        <mxCell id="y8pR5wxcZNyVzg8NaB7I-28" value="tmp&amp;gt;0" style="rhombus;whiteSpace=wrap;html=1;direction=south;" parent="1" vertex="1">
          <mxGeometry x="240" y="590" width="80" height="80" as="geometry" />
        </mxCell>
        <mxCell id="y8pR5wxcZNyVzg8NaB7I-30" value="False" style="text;html=1;strokeColor=none;fillColor=none;align=center;verticalAlign=middle;whiteSpace=wrap;rounded=0;" parent="1" vertex="1">
          <mxGeometry x="170" y="600" width="60" height="30" as="geometry" />
        </mxCell>
        <mxCell id="y8pR5wxcZNyVzg8NaB7I-32" value="True" style="text;html=1;strokeColor=none;fillColor=none;align=center;verticalAlign=middle;whiteSpace=wrap;rounded=0;" parent="1" vertex="1">
          <mxGeometry x="320" y="605" width="60" height="30" as="geometry" />
        </mxCell>
        <mxCell id="y8pR5wxcZNyVzg8NaB7I-52" style="edgeStyle=orthogonalEdgeStyle;rounded=0;orthogonalLoop=1;jettySize=auto;html=1;entryX=0;entryY=0.5;entryDx=0;entryDy=0;" parent="1" source="y8pR5wxcZNyVzg8NaB7I-34" target="y8pR5wxcZNyVzg8NaB7I-51" edge="1">
          <mxGeometry relative="1" as="geometry">
            <mxPoint x="580" y="850" as="targetPoint" />
            <Array as="points">
              <mxPoint x="310" y="910" />
              <mxPoint x="600" y="910" />
            </Array>
          </mxGeometry>
        </mxCell>
        <mxCell id="y8pR5wxcZNyVzg8NaB7I-34" value="số tiền phải lớn hơn 0" style="shape=parallelogram;perimeter=parallelogramPerimeter;whiteSpace=wrap;html=1;fixedSize=1;" parent="1" vertex="1">
          <mxGeometry x="150" y="1000" width="150" height="40" as="geometry" />
        </mxCell>
        <mxCell id="y8pR5wxcZNyVzg8NaB7I-37" style="edgeStyle=orthogonalEdgeStyle;rounded=0;orthogonalLoop=1;jettySize=auto;html=1;entryX=0.75;entryY=0;entryDx=0;entryDy=0;" parent="1" source="y8pR5wxcZNyVzg8NaB7I-39" target="y8pR5wxcZNyVzg8NaB7I-34" edge="1">
          <mxGeometry relative="1" as="geometry">
            <mxPoint x="260" y="990" as="targetPoint" />
            <Array as="points">
              <mxPoint x="820" y="645" />
              <mxPoint x="820" y="760" />
              <mxPoint x="263" y="760" />
            </Array>
          </mxGeometry>
        </mxCell>
        <mxCell id="y8pR5wxcZNyVzg8NaB7I-38" style="edgeStyle=orthogonalEdgeStyle;rounded=0;orthogonalLoop=1;jettySize=auto;html=1;" parent="1" source="y8pR5wxcZNyVzg8NaB7I-39" edge="1">
          <mxGeometry relative="1" as="geometry">
            <mxPoint x="1010" y="500" as="targetPoint" />
          </mxGeometry>
        </mxCell>
        <mxCell id="y8pR5wxcZNyVzg8NaB7I-39" value="tmp&amp;gt;0" style="rhombus;whiteSpace=wrap;html=1;direction=south;" parent="1" vertex="1">
          <mxGeometry x="900" y="605" width="80" height="80" as="geometry" />
        </mxCell>
        <mxCell id="y8pR5wxcZNyVzg8NaB7I-40" value="False" style="text;html=1;strokeColor=none;fillColor=none;align=center;verticalAlign=middle;whiteSpace=wrap;rounded=0;" parent="1" vertex="1">
          <mxGeometry x="830" y="615" width="60" height="30" as="geometry" />
        </mxCell>
        <mxCell id="y8pR5wxcZNyVzg8NaB7I-41" value="True" style="text;html=1;strokeColor=none;fillColor=none;align=center;verticalAlign=middle;whiteSpace=wrap;rounded=0;" parent="1" vertex="1">
          <mxGeometry x="960" y="615" width="60" height="30" as="geometry" />
        </mxCell>
        <mxCell id="y8pR5wxcZNyVzg8NaB7I-50" style="edgeStyle=orthogonalEdgeStyle;rounded=0;orthogonalLoop=1;jettySize=auto;html=1;entryX=0.75;entryY=0;entryDx=0;entryDy=0;" parent="1" source="y8pR5wxcZNyVzg8NaB7I-44" edge="1" target="y8pR5wxcZNyVzg8NaB7I-68">
          <mxGeometry relative="1" as="geometry">
            <mxPoint x="930" y="880" as="targetPoint" />
            <Array as="points">
              <mxPoint x="1000" y="730" />
            </Array>
          </mxGeometry>
        </mxCell>
        <mxCell id="y8pR5wxcZNyVzg8NaB7I-57" style="edgeStyle=orthogonalEdgeStyle;rounded=0;orthogonalLoop=1;jettySize=auto;html=1;" parent="1" source="y8pR5wxcZNyVzg8NaB7I-44" edge="1">
          <mxGeometry relative="1" as="geometry">
            <mxPoint x="1169.9999999999995" y="790" as="targetPoint" />
          </mxGeometry>
        </mxCell>
        <mxCell id="y8pR5wxcZNyVzg8NaB7I-44" value="money&amp;gt;tmp" style="rhombus;whiteSpace=wrap;html=1;" parent="1" vertex="1">
          <mxGeometry x="1010" y="690" width="80" height="80" as="geometry" />
        </mxCell>
        <mxCell id="y8pR5wxcZNyVzg8NaB7I-49" style="edgeStyle=orthogonalEdgeStyle;rounded=0;orthogonalLoop=1;jettySize=auto;html=1;entryX=0.75;entryY=0;entryDx=0;entryDy=0;movable=0;resizable=0;rotatable=0;deletable=0;editable=0;locked=1;connectable=0;" parent="1" source="y8pR5wxcZNyVzg8NaB7I-47" target="y8pR5wxcZNyVzg8NaB7I-15" edge="1">
          <mxGeometry relative="1" as="geometry">
            <Array as="points">
              <mxPoint x="655" y="230" />
              <mxPoint x="655" y="230" />
            </Array>
          </mxGeometry>
        </mxCell>
        <mxCell id="y8pR5wxcZNyVzg8NaB7I-47" value="in hoa tên riêng" style="rounded=0;whiteSpace=wrap;html=1;" parent="1" vertex="1">
          <mxGeometry x="600" y="150" width="120" height="60" as="geometry" />
        </mxCell>
        <mxCell id="y8pR5wxcZNyVzg8NaB7I-54" style="edgeStyle=orthogonalEdgeStyle;rounded=0;orthogonalLoop=1;jettySize=auto;html=1;entryX=0.002;entryY=0.849;entryDx=0;entryDy=0;entryPerimeter=0;movable=0;resizable=0;rotatable=0;deletable=0;editable=0;locked=1;connectable=0;" parent="1" source="y8pR5wxcZNyVzg8NaB7I-51" target="y8pR5wxcZNyVzg8NaB7I-15" edge="1">
          <mxGeometry relative="1" as="geometry">
            <mxPoint x="30" y="800" as="targetPoint" />
            <Array as="points">
              <mxPoint x="620" y="960" />
              <mxPoint x="130" y="960" />
              <mxPoint x="130" y="368" />
            </Array>
          </mxGeometry>
        </mxCell>
        <mxCell id="y8pR5wxcZNyVzg8NaB7I-51" value="" style="ellipse;whiteSpace=wrap;html=1;aspect=fixed;" parent="1" vertex="1">
          <mxGeometry x="600" y="890" width="40" height="40" as="geometry" />
        </mxCell>
        <mxCell id="y8pR5wxcZNyVzg8NaB7I-58" value="False" style="text;html=1;strokeColor=none;fillColor=none;align=center;verticalAlign=middle;whiteSpace=wrap;rounded=0;" parent="1" vertex="1">
          <mxGeometry x="960" y="700" width="60" height="30" as="geometry" />
        </mxCell>
        <mxCell id="y8pR5wxcZNyVzg8NaB7I-59" value="True" style="text;html=1;strokeColor=none;fillColor=none;align=center;verticalAlign=middle;whiteSpace=wrap;rounded=0;" parent="1" vertex="1">
          <mxGeometry x="1100" y="700" width="60" height="30" as="geometry" />
        </mxCell>
        <mxCell id="y8pR5wxcZNyVzg8NaB7I-64" style="edgeStyle=orthogonalEdgeStyle;rounded=0;orthogonalLoop=1;jettySize=auto;html=1;" parent="1" source="y8pR5wxcZNyVzg8NaB7I-60" edge="1">
          <mxGeometry relative="1" as="geometry">
            <mxPoint x="500" y="810" as="targetPoint" />
            <Array as="points">
              <mxPoint x="500" y="795" />
            </Array>
          </mxGeometry>
        </mxCell>
        <mxCell id="y8pR5wxcZNyVzg8NaB7I-60" value="money=money+tmp" style="rounded=0;whiteSpace=wrap;html=1;" parent="1" vertex="1">
          <mxGeometry x="270" y="770" width="120" height="50" as="geometry" />
        </mxCell>
        <mxCell id="y8pR5wxcZNyVzg8NaB7I-63" style="edgeStyle=orthogonalEdgeStyle;rounded=0;orthogonalLoop=1;jettySize=auto;html=1;entryX=0;entryY=0;entryDx=0;entryDy=0;" parent="1" source="y8pR5wxcZNyVzg8NaB7I-62" target="y8pR5wxcZNyVzg8NaB7I-51" edge="1">
          <mxGeometry relative="1" as="geometry">
            <Array as="points">
              <mxPoint x="606" y="830" />
            </Array>
          </mxGeometry>
        </mxCell>
        <mxCell id="y8pR5wxcZNyVzg8NaB7I-62" value="gửi tiền thành công" style="shape=parallelogram;perimeter=parallelogramPerimeter;whiteSpace=wrap;html=1;fixedSize=1;" parent="1" vertex="1">
          <mxGeometry x="445" y="810" width="150" height="40" as="geometry" />
        </mxCell>
        <mxCell id="y8pR5wxcZNyVzg8NaB7I-70" style="edgeStyle=orthogonalEdgeStyle;rounded=0;orthogonalLoop=1;jettySize=auto;html=1;entryX=1;entryY=0.25;entryDx=0;entryDy=0;" parent="1" source="y8pR5wxcZNyVzg8NaB7I-65" target="y8pR5wxcZNyVzg8NaB7I-66" edge="1">
          <mxGeometry relative="1" as="geometry">
            <Array as="points">
              <mxPoint x="1030" y="821" />
              <mxPoint x="1030" y="821" />
            </Array>
          </mxGeometry>
        </mxCell>
        <mxCell id="y8pR5wxcZNyVzg8NaB7I-65" value="money=money-tmp" style="rounded=0;whiteSpace=wrap;html=1;" parent="1" vertex="1">
          <mxGeometry x="1110" y="790" width="120" height="50" as="geometry" />
        </mxCell>
        <mxCell id="y8pR5wxcZNyVzg8NaB7I-67" style="edgeStyle=orthogonalEdgeStyle;rounded=0;orthogonalLoop=1;jettySize=auto;html=1;entryX=0.5;entryY=0;entryDx=0;entryDy=0;" parent="1" source="y8pR5wxcZNyVzg8NaB7I-66" target="y8pR5wxcZNyVzg8NaB7I-51" edge="1">
          <mxGeometry relative="1" as="geometry" />
        </mxCell>
        <mxCell id="y8pR5wxcZNyVzg8NaB7I-66" value="rút tiền thành công" style="shape=parallelogram;perimeter=parallelogramPerimeter;whiteSpace=wrap;html=1;fixedSize=1;" parent="1" vertex="1">
          <mxGeometry x="670" y="810" width="150" height="40" as="geometry" />
        </mxCell>
        <mxCell id="y8pR5wxcZNyVzg8NaB7I-69" style="edgeStyle=orthogonalEdgeStyle;rounded=0;orthogonalLoop=1;jettySize=auto;html=1;entryX=1;entryY=0.5;entryDx=0;entryDy=0;" parent="1" source="y8pR5wxcZNyVzg8NaB7I-68" target="y8pR5wxcZNyVzg8NaB7I-51" edge="1">
          <mxGeometry relative="1" as="geometry">
            <Array as="points">
              <mxPoint x="810" y="910" />
              <mxPoint x="810" y="910" />
            </Array>
          </mxGeometry>
        </mxCell>
        <mxCell id="y8pR5wxcZNyVzg8NaB7I-68" value="số tiền lớn hơn số dư" style="shape=parallelogram;perimeter=parallelogramPerimeter;whiteSpace=wrap;html=1;fixedSize=1;" parent="1" vertex="1">
          <mxGeometry x="880" y="1000" width="160" height="40" as="geometry" />
        </mxCell>
        <mxCell id="y8pR5wxcZNyVzg8NaB7I-73" style="edgeStyle=orthogonalEdgeStyle;rounded=0;orthogonalLoop=1;jettySize=auto;html=1;entryX=0.5;entryY=0;entryDx=0;entryDy=0;" parent="1" source="y8pR5wxcZNyVzg8NaB7I-72" target="y8pR5wxcZNyVzg8NaB7I-11" edge="1">
          <mxGeometry relative="1" as="geometry" />
        </mxCell>
        <mxCell id="y8pR5wxcZNyVzg8NaB7I-72" value="see you later" style="shape=parallelogram;perimeter=parallelogramPerimeter;whiteSpace=wrap;html=1;fixedSize=1;" parent="1" vertex="1">
          <mxGeometry x="560" y="580" width="120" height="40" as="geometry" />
        </mxCell>
        <mxCell id="lLIlpb1FzrKMfDGVQR3W-1" value="input: tmp&lt;br&gt;process: money=money+tmp&lt;br&gt;money=money-tmp&lt;br&gt;output: money" style="rounded=1;whiteSpace=wrap;html=1;" parent="1" vertex="1">
          <mxGeometry x="30" y="40" width="250" height="230" as="geometry" />
        </mxCell>
        <mxCell id="1MU2ezovRidm6G-BeYjr-4" style="edgeStyle=orthogonalEdgeStyle;rounded=0;orthogonalLoop=1;jettySize=auto;html=1;entryX=0.5;entryY=0;entryDx=0;entryDy=0;movable=0;resizable=0;rotatable=0;deletable=0;editable=0;locked=1;connectable=0;" edge="1" parent="1" source="1MU2ezovRidm6G-BeYjr-2" target="y8pR5wxcZNyVzg8NaB7I-2">
          <mxGeometry relative="1" as="geometry">
            <Array as="points">
              <mxPoint x="515" y="90" />
              <mxPoint x="515" y="90" />
            </Array>
          </mxGeometry>
        </mxCell>
        <mxCell id="1MU2ezovRidm6G-BeYjr-2" value="MAX=100&lt;br&gt;LIMIT_TRANS=2000000000&lt;br&gt;LIMIT_BALANCE=10000000000&lt;br&gt;money=0" style="rounded=0;whiteSpace=wrap;html=1;" vertex="1" parent="1">
          <mxGeometry x="405" y="20" width="190" height="60" as="geometry" />
        </mxCell>
        <mxCell id="1MU2ezovRidm6G-BeYjr-8" style="edgeStyle=orthogonalEdgeStyle;rounded=0;orthogonalLoop=1;jettySize=auto;html=1;entryX=0.5;entryY=0;entryDx=0;entryDy=0;" edge="1" parent="1" source="1MU2ezovRidm6G-BeYjr-5" target="y8pR5wxcZNyVzg8NaB7I-44">
          <mxGeometry relative="1" as="geometry">
            <mxPoint x="1050" y="650" as="targetPoint" />
            <Array as="points">
              <mxPoint x="1160" y="460" />
              <mxPoint x="1160" y="690" />
            </Array>
          </mxGeometry>
        </mxCell>
        <mxCell id="1MU2ezovRidm6G-BeYjr-13" style="edgeStyle=orthogonalEdgeStyle;rounded=0;orthogonalLoop=1;jettySize=auto;html=1;entryX=0.75;entryY=0;entryDx=0;entryDy=0;" edge="1" parent="1" source="1MU2ezovRidm6G-BeYjr-5" target="1MU2ezovRidm6G-BeYjr-15">
          <mxGeometry relative="1" as="geometry">
            <mxPoint x="830" y="990" as="targetPoint" />
            <Array as="points">
              <mxPoint x="828" y="460" />
            </Array>
          </mxGeometry>
        </mxCell>
        <mxCell id="1MU2ezovRidm6G-BeYjr-5" value="tmp&amp;lt;LIMIT_TRANS" style="rhombus;whiteSpace=wrap;html=1;" vertex="1" parent="1">
          <mxGeometry x="930" y="420" width="170" height="80" as="geometry" />
        </mxCell>
        <mxCell id="1MU2ezovRidm6G-BeYjr-12" value="True" style="text;html=1;align=center;verticalAlign=middle;resizable=0;points=[];autosize=1;strokeColor=none;fillColor=none;" vertex="1" parent="1">
          <mxGeometry x="1100" y="430" width="50" height="30" as="geometry" />
        </mxCell>
        <mxCell id="1MU2ezovRidm6G-BeYjr-14" value="False" style="text;html=1;align=center;verticalAlign=middle;resizable=0;points=[];autosize=1;strokeColor=none;fillColor=none;" vertex="1" parent="1">
          <mxGeometry x="880" y="430" width="50" height="30" as="geometry" />
        </mxCell>
        <mxCell id="1MU2ezovRidm6G-BeYjr-22" style="edgeStyle=orthogonalEdgeStyle;rounded=0;orthogonalLoop=1;jettySize=auto;html=1;entryX=1;entryY=0;entryDx=0;entryDy=0;" edge="1" parent="1" source="1MU2ezovRidm6G-BeYjr-15" target="y8pR5wxcZNyVzg8NaB7I-51">
          <mxGeometry relative="1" as="geometry">
            <Array as="points">
              <mxPoint x="780" y="896" />
            </Array>
          </mxGeometry>
        </mxCell>
        <mxCell id="1MU2ezovRidm6G-BeYjr-15" value="số tiền không được quá mức quy định trong 1 lần giao dịch" style="shape=parallelogram;perimeter=parallelogramPerimeter;whiteSpace=wrap;html=1;fixedSize=1;" vertex="1" parent="1">
          <mxGeometry x="670" y="1000" width="210" height="60" as="geometry" />
        </mxCell>
        <mxCell id="1MU2ezovRidm6G-BeYjr-19" style="edgeStyle=orthogonalEdgeStyle;rounded=0;orthogonalLoop=1;jettySize=auto;html=1;movable=1;resizable=1;rotatable=1;deletable=1;editable=1;locked=0;connectable=1;entryX=0.5;entryY=1;entryDx=0;entryDy=0;" edge="1" parent="1" source="1MU2ezovRidm6G-BeYjr-16" target="1MU2ezovRidm6G-BeYjr-15">
          <mxGeometry relative="1" as="geometry">
            <mxPoint x="780" y="1080" as="targetPoint" />
            <Array as="points">
              <mxPoint x="200" y="710" />
              <mxPoint x="200" y="870" />
              <mxPoint x="410" y="870" />
              <mxPoint x="410" y="1090" />
              <mxPoint x="775" y="1090" />
            </Array>
          </mxGeometry>
        </mxCell>
        <mxCell id="1MU2ezovRidm6G-BeYjr-38" style="edgeStyle=orthogonalEdgeStyle;shape=connector;rounded=0;orthogonalLoop=1;jettySize=auto;html=1;exitX=1;exitY=0.5;exitDx=0;exitDy=0;labelBackgroundColor=default;strokeColor=default;fontFamily=Helvetica;fontSize=11;fontColor=default;endArrow=classic;entryX=0.5;entryY=0;entryDx=0;entryDy=0;" edge="1" parent="1" source="1MU2ezovRidm6G-BeYjr-16" target="1MU2ezovRidm6G-BeYjr-37">
          <mxGeometry relative="1" as="geometry">
            <mxPoint x="450" y="630" as="targetPoint" />
            <Array as="points">
              <mxPoint x="430" y="710" />
              <mxPoint x="430" y="630" />
              <mxPoint x="563" y="630" />
            </Array>
          </mxGeometry>
        </mxCell>
        <mxCell id="1MU2ezovRidm6G-BeYjr-16" value="tmp&amp;lt;LIMIT_TRANS" style="rhombus;whiteSpace=wrap;html=1;" vertex="1" parent="1">
          <mxGeometry x="255" y="670" width="170" height="80" as="geometry" />
        </mxCell>
        <mxCell id="1MU2ezovRidm6G-BeYjr-25" style="edgeStyle=orthogonalEdgeStyle;rounded=0;orthogonalLoop=1;jettySize=auto;html=1;entryX=1;entryY=1;entryDx=0;entryDy=0;" edge="1" parent="1" source="1MU2ezovRidm6G-BeYjr-24" target="y8pR5wxcZNyVzg8NaB7I-51">
          <mxGeometry relative="1" as="geometry" />
        </mxCell>
        <mxCell id="1MU2ezovRidm6G-BeYjr-24" value="số dư của bạn vượt quá mức gửi quy định" style="shape=parallelogram;perimeter=parallelogramPerimeter;whiteSpace=wrap;html=1;fixedSize=1;" vertex="1" parent="1">
          <mxGeometry x="480" y="1005" width="177.5" height="50" as="geometry" />
        </mxCell>
        <mxCell id="1MU2ezovRidm6G-BeYjr-30" value="False" style="text;html=1;align=center;verticalAlign=middle;resizable=0;points=[];autosize=1;strokeColor=none;fillColor=none;" vertex="1" parent="1">
          <mxGeometry x="200" y="685" width="50" height="30" as="geometry" />
        </mxCell>
        <mxCell id="1MU2ezovRidm6G-BeYjr-31" value="True" style="text;html=1;align=center;verticalAlign=middle;resizable=0;points=[];autosize=1;strokeColor=none;fillColor=none;" vertex="1" parent="1">
          <mxGeometry x="275" y="480" width="50" height="30" as="geometry" />
        </mxCell>
        <mxCell id="1MU2ezovRidm6G-BeYjr-39" style="edgeStyle=orthogonalEdgeStyle;shape=connector;rounded=0;orthogonalLoop=1;jettySize=auto;html=1;exitX=0;exitY=0.5;exitDx=0;exitDy=0;labelBackgroundColor=default;strokeColor=default;fontFamily=Helvetica;fontSize=11;fontColor=default;endArrow=classic;entryX=0;entryY=0.75;entryDx=0;entryDy=0;" edge="1" parent="1" source="1MU2ezovRidm6G-BeYjr-37" target="1MU2ezovRidm6G-BeYjr-24">
          <mxGeometry relative="1" as="geometry">
            <mxPoint x="450" y="1040" as="targetPoint" />
            <Array as="points">
              <mxPoint x="440" y="710" />
              <mxPoint x="440" y="1040" />
              <mxPoint x="470" y="1040" />
              <mxPoint x="470" y="1042" />
            </Array>
          </mxGeometry>
        </mxCell>
        <mxCell id="1MU2ezovRidm6G-BeYjr-41" style="edgeStyle=orthogonalEdgeStyle;shape=connector;rounded=0;orthogonalLoop=1;jettySize=auto;html=1;labelBackgroundColor=default;strokeColor=default;fontFamily=Helvetica;fontSize=11;fontColor=default;endArrow=classic;entryX=1;entryY=0.25;entryDx=0;entryDy=0;" edge="1" parent="1" source="1MU2ezovRidm6G-BeYjr-37" target="y8pR5wxcZNyVzg8NaB7I-60">
          <mxGeometry relative="1" as="geometry">
            <mxPoint x="680" y="780" as="targetPoint" />
            <Array as="points">
              <mxPoint x="680" y="710" />
              <mxPoint x="680" y="783" />
            </Array>
          </mxGeometry>
        </mxCell>
        <mxCell id="1MU2ezovRidm6G-BeYjr-37" value="money+tmp&amp;lt;LIMIT_BALANCE" style="rhombus;whiteSpace=wrap;html=1;fontFamily=Helvetica;fontSize=11;fontColor=default;" vertex="1" parent="1">
          <mxGeometry x="467.5" y="670" width="190" height="80" as="geometry" />
        </mxCell>
        <mxCell id="1MU2ezovRidm6G-BeYjr-40" value="False" style="text;html=1;strokeColor=none;fillColor=none;align=center;verticalAlign=middle;whiteSpace=wrap;rounded=0;fontSize=11;fontFamily=Helvetica;fontColor=default;" vertex="1" parent="1">
          <mxGeometry x="430" y="685" width="60" height="30" as="geometry" />
        </mxCell>
        <mxCell id="1MU2ezovRidm6G-BeYjr-42" value="True" style="text;html=1;align=center;verticalAlign=middle;resizable=0;points=[];autosize=1;strokeColor=none;fillColor=none;fontSize=11;fontFamily=Helvetica;fontColor=default;" vertex="1" parent="1">
          <mxGeometry x="640" y="685" width="50" height="30" as="geometry" />
        </mxCell>
      </root>
    </mxGraphModel>
  </diagram>
</mxfile>
